# xmcd CD database file
#
# Track frame offsets:
#	150
#	21175
#	33477
#	54470
#
# Disc length: 887 seconds
#
# Revision: 0
# Processed by: cddbd v1.5PL3 Copyright (c) Steve Scherf et al.
# Submitted via: CDex 1.51
#
DISCID=2b037504
DTITLE=K-DUB SHINE - 今なら
DYEAR=2004
DGENRE=JPop
TTITLE0=今なら
TTITLE1=なんでそんなに
TTITLE2=今なら Instrumental
TTITLE3=なんでそんなに Instrumental
EXTD=YEAR: 2004
EXTT0=
EXTT1=
EXTT2=
EXTT3=
PLAYORDER=
